<?xml version="1.0" encoding="UTF-8" standalone="no"?>
<svg
   xmlns:dc="http://purl.org/dc/elements/1.1/"
   xmlns:cc="http://creativecommons.org/ns#"
   xmlns:rdf="http://www.w3.org/1999/02/22-rdf-syntax-ns#"
   xmlns:svg="http://www.w3.org/2000/svg"
   xmlns="http://www.w3.org/2000/svg"
   xmlns:sodipodi="http://sodipodi.sourceforge.net/DTD/sodipodi-0.dtd"
   xmlns:inkscape="http://www.inkscape.org/namespaces/inkscape"
   width="63"
   height="61.001999"
   version="1.1"
   id="svg4"
   sodipodi:docname="note.svg"
   inkscape:version="1.0.2 (1.0.2+r75+1)">
  <metadata
     id="metadata10">
    <rdf:RDF>
      <cc:Work
         rdf:about="">
        <dc:format>image/svg+xml</dc:format>
        <dc:type
           rdf:resource="http://purl.org/dc/dcmitype/StillImage" />
        <dc:title></dc:title>
      </cc:Work>
    </rdf:RDF>
  </metadata>
  <defs
     id="defs8" />
  <sodipodi:namedview
     pagecolor="#ffffff"
     bordercolor="#666666"
     borderopacity="1"
     objecttolerance="10"
     gridtolerance="10"
     guidetolerance="10"
     inkscape:pageopacity="0"
     inkscape:pageshadow="2"
     inkscape:window-width="1848"
     inkscape:window-height="1016"
     id="namedview6"
     showgrid="false"
     fit-margin-top="0"
     fit-margin-left="0"
     fit-margin-right="0"
     fit-margin-bottom="0"
     inkscape:zoom="9.8386466"
     inkscape:cx="42"
     inkscape:cy="40.658998"
     inkscape:window-x="0"
     inkscape:window-y="0"
     inkscape:window-maximized="1"
     inkscape:current-layer="svg4" />
  <path
     fill="#95e1d3"
     fill-rule="evenodd"
     d="m 60,36.001 h -2 v 5.001 c 0,0.205 -0.021,0.409 -0.061,0.604 -0.028,0.136 -0.076,0.263 -0.122,0.392 -0.02,0.058 -0.03,0.117 -0.053,0.17 -0.048,0.115 -0.115,0.22 -0.176,0.327 -0.035,0.06 -0.061,0.126 -0.1,0.184 a 2.99,2.99 0 0 1 -0.334,0.403 c -0.012,0.013 -0.02,0.029 -0.033,0.04 a 2.983,2.983 0 0 1 -2.084,0.876 L 55,44 A 2.986,2.986 0 0 1 52.879,43.122 L 45.757,36.001 H 18 a 3,3 0 0 1 -3,-3 v -30 A 3,3 0 0 1 18,0 h 42 a 3,3 0 0 1 3,3.001 v 30 a 3,3 0 0 1 -3,3 z m -15.485,3 6.326,6.327 0.008,-0.008 A 5.97,5.97 0 0 0 55,47.002 v 2 a 3,3 0 0 1 -3,2.999 H 20.243 l -8.122,8.122 A 2.995,2.995 0 0 1 10,61.002 c -0.013,0 -0.024,-0.004 -0.037,-0.004 A 2.993,2.993 0 0 1 7.879,60.123 C 7.866,60.11 7.858,60.094 7.846,60.082 A 2.938,2.938 0 0 1 7.512,59.678 C 7.473,59.621 7.448,59.556 7.413,59.495 7.351,59.387 7.284,59.283 7.236,59.169 7.213,59.115 7.203,59.055 7.183,58.999 7.137,58.869 7.089,58.743 7.061,58.605 A 2.999,2.999 0 0 1 7,58 V 52.001 H 2.996 A 3,3 0 0 1 0,49.002 v -34 -0.001 a 3,3 0 0 1 3,-3 h 9 v 21 a 6,6 0 0 0 6,6 z"
     id="path2" />
</svg>
