<svg version="1.1" viewBox="0 0 30.001 30.015" xmlns="http://www.w3.org/2000/svg">
 <path d="m30.001 24.007c0 0.653-0.419 1.202-1 1.409v1.683a1.498 1.498 0 0 1-0.5 2.908 1.495 1.495 0 0 1-1.408-0.999h-1.684a1.495 1.495 0 0 1-1.408 0.999 1.494 1.494 0 0 1-1.408-0.999h-1.684a1.495 1.495 0 0 1-1.408 0.999 1.494 1.494 0 0 1-1.408-0.999h-1.684a1.494 1.494 0 0 1-1.408 0.999 1.494 1.494 0 0 1-1.408-0.999h-1.684a1.495 1.495 0 0 1-1.408 0.999 1.494 1.494 0 0 1-1.408-0.999h-1.684a1.494 1.494 0 0 1-1.408 0.999 1.494 1.494 0 0 1-1.408-0.999h-1.684a1.495 1.495 0 0 1-2.908-0.5c0-0.652 0.419-1.202 1-1.409v-1.683c-0.581-0.207-1-0.756-1-1.409 0-0.652 0.419-1.201 1-1.407v-1.684c-0.581-0.207-1-0.757-1-1.408 0-0.652 0.419-1.202 1-1.409v-1.683c-0.581-0.207-1-0.756-1-1.408 0-0.653 0.419-1.202 1-1.409v-1.684c-0.581-0.206-1-0.755-1-1.407s0.419-1.202 1-1.408v-1.684c-0.581-0.207-1-0.756-1-1.409 0-0.652 0.419-1.201 1-1.407v-1.684a1.497 1.497 0 1 1 1.908-1.909h1.684a1.494 1.494 0 0 1 1.408-0.999c0.652 0 1.202 0.418 1.408 0.999h1.684a1.494 1.494 0 0 1 1.408-0.999c0.652 0 1.201 0.418 1.408 0.999h1.684a1.494 1.494 0 0 1 1.408-0.999c0.652 0 1.202 0.418 1.408 0.999h1.684a1.494 1.494 0 0 1 1.408-0.999c0.652 0 1.201 0.418 1.408 0.999h1.684a1.494 1.494 0 0 1 1.408-0.999c0.652 0 1.201 0.418 1.408 0.999h1.684a1.495 1.495 0 0 1 2.908 0.501c0 0.651-0.419 1.201-1 1.408v1.684c0.581 0.206 1 0.755 1 1.407 0 0.653-0.419 1.202-1 1.409v1.684c0.581 0.206 1 0.756 1 1.408s-0.419 1.201-1 1.407v1.684c0.581 0.207 1 0.756 1 1.409 0 0.652-0.419 1.201-1 1.408v1.683c0.581 0.207 1 0.757 1 1.409 0 0.651-0.419 1.201-1 1.408v1.684c0.581 0.206 1 0.755 1 1.407zm-4-20h-22v22.001h22zm-13 16.001 7-8.5 4.5 6.999v6.001h-19l6-6.001zm-3-7.001a2.9995 2.9995 0 1 1 0-5.999 3 3 0 1 1 0 5.999z" fill="#FFF" fill-rule="evenodd" style="fill:#fff"/>
</svg>
