<svg enable-background="new 0 0 512 512" version="1.1" viewBox="0 0 32 24" xmlns="http://www.w3.org/2000/svg">
 <g transform="matrix(.0625 0 0 .0625 0 -6)">
  <g id="users" transform="matrix(.91049 0 0 .92309 0 7.3839)" style="fill:#fff">
   <path d="m338 382h-26c-28.719 0-52-23.281-52-52v-16.719c11.5-13.656 19.75-29.844 24.875-46.906 0.531-2.875 3.313-4.313 5.156-6.313 9.969-9.938 11.906-26.734 4.438-38.703-1-1.813-2.844-3.375-2.719-5.625 0-15.25 0.063-30.531-0.031-45.766-0.406-18.391-5.656-37.516-18.563-51.141-10.406-11.016-24.719-17.563-39.469-20.359-18.625-3.563-38.125-3.375-56.594 1.313-15.969 4.047-31.031 13.406-40.313 27.297-8.219 12.078-11.844 26.734-12.438 41.188-0.219 15.516-0.063 31.063-0.094 46.609 0.344 3.109-2.313 5.219-3.5 7.797-7.031 12.766-3.938 30.141 7.375 39.422 2.875 1.969 3.406 5.594 4.438 8.719 4.938 15.344 13.125 29.563 23.438 41.938v17.25c0 28.719-23.281 52-52 52h-25.999c-45.601 40.614-78 39.319-78 104 0 14.375 11.625 26 26 26h364c14.375 0 26-11.625 26-26 3.8764-47.453-36.504-86.807-78-104z" style="fill:#fff"/>
   <path d="m495.94 400.31h-22.131c-24.446 0-44.262-19.817-44.262-44.262v-14.231c9.7888-11.624 16.811-25.403 21.174-39.926 0.45199-2.4472 2.82-3.6712 4.3888-5.3736 8.4856-8.4592 10.134-22.756 3.7776-32.944-0.85121-1.5432-2.4208-2.8728-2.3144-4.788 0-12.981 0.0536-25.988-0.0264-38.956-0.34559-15.654-4.8144-31.934-15.801-43.531-8.8576-9.3768-21.041-14.95-33.596-17.33-15.854-3.0328-32.452-2.8728-48.173 1.1176-13.593 3.4448-26.414 11.411-34.314 23.235-6.996 10.281-10.082 22.756-10.587 35.059-0.18641 13.207-0.0536 26.441-0.08 39.674 0.29281 2.6464-1.9688 4.4424-2.9792 6.6368-5.9848 10.866-3.352 25.656 6.2776 33.556 2.4472 1.676 2.8992 4.7616 3.7776 7.4216 4.2032 13.061 11.172 25.164 19.95 35.698l0.995 21.498c28.159 24.605 41.373 28.366 67.237 61.937 20.096 26.215 23.53 44.219 13.113 86.166h117.84c12.236 0 22.131-9.8952 22.131-22.131v-22.131c-26.281-55.329-66.394-66.395-66.394-66.395z" style="fill:#fff;stroke-width:.8512"/>
  </g>
 </g>
</svg>
