<svg clip-rule="evenodd" fill-rule="evenodd" version="1.1" viewBox="0 0 9.2628 5.3374" xmlns="http://www.w3.org/2000/svg">
 <g id="icon" transform="matrix(.37159 0 0 .41535 0 -.2111)">
  <path id="arrow" d="m24.891 7.8855c-0.034817 0.35728-1.7217 0.46801-2.0059 0.07016 0.51881-1.0336 0.11504-1.7969 0.11504-1.7969-1.853 4.237-6.083 7.2-11 7.2-6.623 0-12-8.6885-12-12 0.40123-0.88013 2.8577-0.55814 2.9542-0.00642 0.62602 3.5778 3.3188 8.8302 8.9887 9.3467 3.8158 0.34759 7.3401-1.4793 8.9421-5.5753 0 0-0.94543-0.40085-1.587 0.11652-0.25745 0.20762-0.96807-1.6711-0.65987-1.7911 1.0595-0.41248 4.6496-0.87636 4.6496-0.87636s1.927 1.9886 1.6031 5.3127z" style="fill:#280b0b"/>
  <text id="next" transform="scale(1.0608 .94269)" x="3.7116997" y="4.8876705" style="fill:#280b0b;font-family:sans-serif;font-size:6.1932px;line-height:1.25;stroke-width:.58061" xml:space="preserve"><tspan x="3.7116997" y="4.8876705" style="fill:#280b0b;stroke-width:.58061">next</tspan></text>
 </g>
</svg>
