<svg clip-rule="evenodd" fill-rule="evenodd" version="1.1" viewBox="0 0 12.769 12.701" xmlns="http://www.w3.org/2000/svg">
 <g id="arrows" transform="translate(.00051349 -.00027071)">
  <path id="arrow-top" d="m0.013369 2.9967c0.012939-0.1484 0.63977-0.19439 0.74537-0.029141-0.19278 0.42931-0.042748 0.74634-0.042748 0.74634 0.68856-1.7598 2.9429-3.7331 5.4182-3.7135 3.4775 0.027534 5.9715 2.2841 6.4761 5.1188-0.14909 0.36556-1.7588 0.68271-1.8277 0.4612-0.54765-1.7608-2.4049-4.0539-4.7943-4.124-1.5045-0.044148-3.1213 0.23192-4.4862 2.6875 0 0 0.35131 0.16649 0.58971-0.048397 0.095666-0.086235 0.33997 0.66257 0.2452 0.74393-0.39218 0.33666-1.7488 0.50752-1.7488 0.50752s-0.69498-0.96951-0.57463-2.3502z" style="fill:#280b0b;stroke-width:.39286"/>
  <path id="arrow-down" d="m12.755 9.7051c-0.01294 0.1484-0.63977 0.19439-0.74537 0.029141 0.19278-0.42931 0.042748-0.74634 0.042748-0.74634-0.68856 1.7598-2.9429 3.7331-5.4182 3.7135-3.4775-0.027532-5.9715-2.2841-6.4761-5.1188 0.14909-0.36556 1.7588-0.68271 1.8277-0.4612 0.54765 1.7608 2.4049 4.0539 4.7943 4.124 1.5045 0.04415 3.1213-0.23192 4.4862-2.6875 0 0-0.35131-0.16649-0.58971 0.048397-0.09567 0.086235-0.33997-0.66257-0.2452-0.74393 0.39218-0.33666 1.7488-0.50752 1.7488-0.50752s0.69498 0.96951 0.57463 2.3502z" style="fill:#280b0b;stroke-width:.39286"/>
  <text id="next" transform="scale(1.0151 .98511)" x="2.0744836" y="7.5208812" style="fill:#2b0000;font-family:sans-serif;font-size:3.7205px;line-height:1.25;stroke-width:.46506" xml:space="preserve"><tspan x="2.0744836" y="7.5208812" style="stroke-width:.46506">next</tspan></text>
 </g>
</svg>
